<svg version="1" xmlns="http://www.w3.org/2000/svg" width="666.667" height="666.667" viewBox="0 0 500.000000 500.000000"><path d="M210.5 84.1C156 92.2 108.9 127 84.6 177c-2.6 5.1-4.6 9.9-4.6 10.6 0 2.7-1.9 2.2-8.6-2.3C48.5 170 30.9 151.9 31 143.8c.1-6.3 11.5-8.9 39.1-8.9l15.6.1 11.7-14.2c6.3-7.8 11.4-14.3 11.3-14.5-.6-.6-22.9-1.7-34.7-1.7-11.8 0-26.9.9-31.6 1.8-1.2.2-3.8.7-5.8 1-4.7.8-14.9 4.2-19.6 6.6C6.7 119.3-.7 133.6.3 146.2c.9 9.7 2.7 14.7 9.1 24.3 9.2 13.8 24.8 27.8 48.9 43.8l11.8 7.8-.6 3.7c-4.9 33.1.9 69 16.1 99.3 4.5 9 16.2 27 21.4 32.9 17.3 19.6 37.3 34.8 58.6 44.6 11.8 5.5 27.4 10.5 37.4 12 1.9.3 4.2.7 5 1 3.4 1.2 14.4 1.9 28 1.9 19.8-.1 28.8-1.2 44.5-5.6 42.1-12 76.2-38 99.6-76.2l5.4-8.7 4.5.5c7.9.9 14.3 1.5 20.5 2.1 7.4.6 34.7.6 39.5-.1 1.9-.2 5.5-.7 8-1 18.3-2.3 33.3-10.6 39.2-21.7 3.4-6.3 3.1-18.1-.5-26.2-8.7-19.1-32.3-40.8-71.9-66l-5.8-3.7v17.3l.1 17.3 6.7 4.5c16.6 11.2 36.5 27.9 41.8 35.1 6.5 8.9 4.3 11.7-11.8 14.5-8.5 1.5-38.7 2.1-49.3 1-1.6-.1-4.7-.4-6.7-.4l-3.7-.2 1.9-6.8c3.7-13.8 5.3-26.3 5.3-42.7 0-28.4-4.7-48.9-16.8-74-4.4-9.1-14.3-25.6-16.4-27.5-.3-.3-2.4-2.8-4.5-5.5-6.5-8.3-22.2-22.9-31.7-29.7-36.9-26-79.5-36.3-123.4-29.7zm46 29.9c43 6 82.7 34.6 101.9 73.5 3 6 6.4 13.7 7.5 17 8.8 26.1 9.2 59.6 1.1 84.1-2.2 6.6-2.2 6.6-5.4 5.9-1.7-.3-4.2-.8-5.6-1.1-6.3-1.2-24.7-5.8-26.2-6.6-1.3-.6-1.8-.5-1.9.4-.7 9.5-2 15.1-5 21.3-1.5 3.2-2.7 6.1-2.5 6.2.2.3 14.1 3.5 21.6 5 1.4.3 3.2.6 4 .8.8.2 2.3.4 3.3.4 2.7.1 2.1 1.7-3.7 9.4-31.5 41.8-84.7 61.7-136.1 51.2-17.3-3.6-36.4-11.9-50.9-22.3-15.8-11.3-33.9-31.9-42.2-48.3-6.4-12.8-12.4-32.1-14-45.4-.6-5.4-1.3-25.5-.8-25.5.1 0 9.3 4.4 20.5 9.9 11.2 5.4 23.1 11.1 26.4 12.6 16.9 7.8 52.7 22.7 53.2 22.1.2-.2.7-1.9.9-3.8 1-6.6 3.4-13.4 6.7-19l3.4-5.6-4.6-1.8c-2.5-.9-6.4-2.5-8.6-3.5-2.2-1-6.9-3-10.5-4.4-3.6-1.5-8.5-3.6-11-4.7-2.5-1.2-6.5-2.9-9-4-13.5-5.8-58.5-28-60.4-29.8-1.1-1.1.8-6.6 6.1-17.7 10.8-22.9 28.8-43.1 50.3-56.8 17.2-11 39.4-18.6 58.5-20.1 4.4-.4 8.1-.7 8.2-.8.7-.5 18 .5 24.8 1.4z"/><path d="M254.4 245c-18.7 5.1-31.4 22.1-31.4 41.9 0 24.1 19.3 43.2 43.5 43.2 19.1 0 35.8-12.7 41.7-31.6 1.7-5.4 1.8-15.8.2-22-2-8.2-5-13.7-10.3-19.3-11.6-12.2-27.6-16.7-43.7-12.2z"/></svg>